inDegrees=yes
name=ik_S53_A07_T02
DataType=double
version=3
OpenSimVersion=4.3-2021-08-27-4bc7ad9
endheader
time	pelvis_tilt	pelvis_list	pelvis_rotation	pelvis_tx	pelvis_ty	pelvis_tz	hip_flexion_r	hip_adduction_r	hip_rotation_r	knee_angle_r	knee_angle_r_beta	ankle_angle_r	subtalar_angle_r	mtp_angle_r	hip_flexion_l	hip_adduction_l	hip_rotation_l	knee_angle_l	knee_angle_l_beta	ankle_angle_l	subtalar_angle_l	mtp_angle_l	lumbar_extension	lumbar_bending	lumbar_rotation	arm_flex_r	arm_add_r	arm_rot_r	elbow_flex_r	pro_sup_r	wrist_flex_r	wrist_dev_r	arm_flex_l	arm_add_l	arm_rot_l	elbow_flex_l	pro_sup_l	wrist_flex_l	wrist_dev_l
13.41666666666691	-1.827900357571096	-2.557969895196332	34.90934041929604	0	0.9399999999999999	0	35.53841013630482	-10.28877815332715	-9.546401770256205	46.79521617786212	0.8167305964862104	0	0	0	35.53841013630482	-10.28877815332715	-9.546401770256205	46.79521617786212	0.8167305964862104	0	0	0	-0.8747501939652581	-1.554719111827768	5.567721521154293	90.06321315444748	-12.672042475994	7.114781267237566	94.34972066098993	127.5144070120066	0	0	33.62083626497449	-12.69964743351723	10.28773546821533	31.27730023707558	116.6175461681212	0	0
13.43333333333358	-1.855856581894548	-2.571395531655851	34.93262739319311	0	0.9399999999999999	0	35.54113336567514	-10.28849338565965	-9.546689036924342	46.79680290967747	0.8167582901807345	0	0	0	35.54113336567514	-10.28849338565965	-9.546689036924342	46.79680290967747	0.8167582901807345	0	0	0	-0.9062633088307365	-1.54930588704484	5.556676664046933	88.94498885060601	-12.73829473754732	7.026866152254534	93.89796106322325	127.0981784000734	0	0	33.69487948390589	-12.66287787162836	10.21622067427139	31.24758897090834	116.6211241094352	0	0
13.45000000000025	-1.914527166508907	-2.604984121648789	34.97541107095982	0	0.9399999999999999	0	35.54452771053205	-10.2881379493479	-9.547047469116405	46.79877669622437	0.8167927392547094	0	0	0	35.54452771053205	-10.2881379493479	-9.547047469116405	46.79877669622437	0.8167927392547094	0	0	0	-0.9740866597492462	-1.543443880442936	5.561777967786789	87.84706229688859	-12.80931417231035	6.9151977221226	93.43325580143812	126.7471921254743	0	0	33.80599824385006	-12.61516570062714	10.16943344179053	31.27486301807459	116.6096399844972	0	0
13.46666666666692	-1.99014183905988	-2.648245703199196	34.99471763289835	0	0.9399999999999999	0	35.54713057922832	-10.2878661566168	-9.547321853268187	46.80029345104784	0.8168192116203244	0	0	0	35.54713057922832	-10.2878661566168	-9.547321853268187	46.80029345104784	0.8168192116203244	0	0	0	-1.061669996252558	-1.535156974431381	5.555226170632045	86.72705587002311	-12.80297130533105	6.738017406168703	92.93431146058759	126.4613348692585	0	0	33.93491941997597	-12.55544483256786	10.0725850234123	31.28045272624253	116.6712288707829	0	0
13.48333333333358	-2.066198353072914	-2.666081035313775	35.01483469661121	0	0.9399999999999999	0	35.55263669930739	-10.28728986379778	-9.547903278005364	46.80349179303069	0.8168750332185301	0	0	0	35.55263669930739	-10.28728986379778	-9.547903278005364	46.80349179303069	0.8168750332185301	0	0	0	-1.136059013744364	-1.505130123561382	5.533697979209558	86.83083884625145	-12.78497590963089	6.993928793322543	91.24637235180262	125.8126443290724	0	0	33.96816619548576	-12.51562029735334	9.955961622380347	31.35382770402308	116.6134596000614	0	0
13.50000000000025	-2.174612059192025	-2.704127448540026	35.01852928225006	0	0.9399999999999999	0	35.55705263118539	-10.28683080230689	-9.548367620892083	46.80607098625349	0.816920048632313	0	0	0	35.55705263118539	-10.28683080230689	-9.548367620892083	46.80607098625349	0.816920048632313	0	0	0	-1.246024433361644	-1.47551967585172	5.569799343351634	85.69811078024767	-12.8945885743733	6.626514849457911	92.50544563445776	126.2254638498132	0	0	34.19297948669001	-12.41344261382273	9.943945142025855	31.33175314960534	116.6251235927049	0	0
13.51666666666692	-2.274505784279246	-2.737865768382157	35.01855211714549	0	0.9399999999999999	0	35.56011285733888	-10.28651172840135	-9.548690077562458	46.80785201007622	0.816951133362076	0	0	0	35.56011285733888	-10.28651172840135	-9.548690077562458	46.80785201007622	0.816951133362076	0	0	0	-1.346824250481121	-1.446694343468512	5.593724725223278	84.42044411281843	-12.97273627102229	6.421674800393028	91.98336956947981	125.9786478906971	0	0	34.21034517390072	-12.37251470975153	9.907819009356253	31.46936010709775	116.5774845340995	0	0
13.53333333333359	-2.365826241101159	-2.749471980475099	35.00790117184393	0	0.9399999999999999	0	35.56374882167387	-10.28613265615587	-9.549073234382208	46.80996675955698	0.8169880427033701	0	0	0	35.56374882167387	-10.28613265615587	-9.549073234382208	46.80996675955698	0.8169880427033701	0	0	0	-1.427792473169706	-1.40479992278521	5.621987507730594	83.06228270259115	-13.004076463164	6.257516884343977	91.44936450686356	125.8631870665846	0	0	34.34312629553376	-12.26647594501295	9.875440165557029	31.46009605521661	116.5235040815404	0	0
13.55000000000025	-2.414350256118746	-2.758505329169597	34.9721723780773	0	0.9399999999999999	0	35.5683728340691	-10.2856531614735	-9.549558907587866	46.81266725651825	0.8170351752667845	0	0	0	35.5683728340691	-10.2856531614735	-9.549558907587866	46.81266725651825	0.8170351752667845	0	0	0	-1.471691630043167	-1.386102250356674	5.666825621287599	81.58291528536537	-13.12472040811364	5.822910611223648	92.90162813491978	126.2686148461532	0	0	34.33656216024228	-12.22815493087002	9.866995298540166	31.53971152792697	116.5033142659082	0	0
13.56666666666692	-2.531580521433873	-2.776311280438541	34.94532837242469	0	0.9399999999999999	0	35.57127504039649	-10.2853515732227	-9.549864192893617	46.81435773328845	0.8170646796523529	0	0	0	35.57127504039649	-10.2853515732227	-9.549864192893617	46.81435773328845	0.8170646796523529	0	0	0	-1.576756393123429	-1.335579160863455	5.714922848667478	80.20921976191224	-13.21060532801356	5.634866871437557	92.36389084901793	126.2184852258209	0	0	34.42379980313891	-12.13115062174547	9.849152330909549	31.57978332478528	116.4804698891999	0	0
13.58333333333359	-2.506509263337055	-2.775494487159437	34.91105749574445	0	0.9399999999999999	0	35.57438814206234	-10.28502934619501	-9.550190857312078	46.81617690352041	0.817096430162555	0	0	0	35.57438814206234	-10.28502934619501	-9.550190857312078	46.81617690352041	0.817096430162555	0	0	0	-1.553844951355738	-1.3525524091109	5.770447364510569	80.07227992012214	-13.16894478140464	5.750204268334349	90.41838544543059	125.9440382627852	0	0	34.26578730675586	-12.20587289861418	9.881117518973543	31.72356340092231	116.4725649434729	0	0
13.60000000000026	-2.625848120087786	-2.796299408472807	34.84610730415209	0	0.9399999999999999	0	35.57818296831245	-10.28463492575831	-9.550590196575833	46.81838386399565	0.8171349488893092	0	0	0	35.57818296831245	-10.28463492575831	-9.550590196575833	46.81838386399565	0.8171349488893092	0	0	0	-1.662722703071294	-1.303508538523343	5.818480415470874	78.72687419411093	-13.12352574797505	5.616668060663338	89.64641120655429	126.2445406153223	0	0	34.34573061537341	-12.13433202325712	9.789366951483395	31.78053669034815	116.5012234953322	0	0
13.61666666666692	-2.727839620190258	-2.799822504051166	34.79132663387982	0	0.9399999999999999	0	35.58114185062641	-10.28432833243268	-9.550900986330008	46.8201086151466	0.8171650514756708	0	0	0	35.58114185062641	-10.28432833243268	-9.550900986330008	46.8201086151466	0.8171650514756708	0	0	0	-1.747142970365297	-1.250232028951841	5.867442593704569	77.25836756586938	-13.06691495140963	5.510122677654426	88.80803724290821	126.4725072994488	0	0	34.49162664911362	-12.01430583774536	9.716316717434925	31.75635399458898	116.5032114057837	0	0
13.63333333333359	-2.823613920222484	-2.811449006851436	34.7626300884984	0	0.9399999999999999	0	35.58438984003613	-10.28399170117772	-9.55124224125543	46.82200020085165	0.8171980658743077	0	0	0	35.58438984003613	-10.28399170117772	-9.55124224125543	46.82200020085165	0.8171980658743077	0	0	0	-1.831360672958664	-1.207252850323795	5.91495041730396	75.65709425757626	-13.03733137841057	5.416904971989884	87.99269188311041	126.5764162101901	0	0	34.51922910228969	-11.92892706438264	9.672451886290551	31.8290856778813	116.5108586002852	0	0
